PathFileType	4	(X/Y/Z)	C:/Users/beibeiliu/ov580/test_trc\sequence.33_training_dense_left.trc
DataRate	CameraRate	NumFrames	NumMarkers	Units	OrigDataRate	OrigDataStartFrame	OrigNumFrames
120	120	23	19	mm	120	1	373
Frame#	Time	ThumbCMC			ThumbMCP			ThumbIP			ThumbTip			IndexMCP			IndexPIP			IndexTip			MiddleMCP			MiddlePIP			MiddleTip			RingMCP			RingPIP			RingTip			PinkyMCP			PinkyPIP			PinkyTip			BackHand1			BackHand2			BackHand3	
		X0	Y0	Z0	X1	Y1	Z1	X2	Y2	Z2	X3	Y3	Z3	X4	Y4	Z4	X5	Y5	Z5	X6	Y6	Z6	X7	Y7	Z7	X8	Y8	Z8	X9	Y9	Z9	X10	Y10	Z10	X11	Y11	Z11	X12	Y12	Z12	X13	Y13	Z13	X14	Y14	Z14	X15	Y15	Z15	X16	Y16	Z16	X17	Y17	Z17	X18	Y18	Z18	
0	0	-161.622	16.7066	27.5379	-147.87	1.28208	11.164	-133.047	-6.51559	-6.18296	-122.863	-15.7263	-24.8625	-165.417	14.5787	-40.9115	-158.259	6.70191	-61.4893	-151.928	-4.946	-86.7962	-186.537	16.8888	-49.8768	-187.07	12.7963	-73.8536	-189.234	6.03459	-98.6882	-206.122	16.791	-45.7016	-208.829	14.7247	-63.8037	-211.984	10.713	-84.8005	-230.843	13.2223	-31.0648	-235.672	10.4866	-44.1908	-240.738	12.209	-64.1912	-206.246	31.4976	-5.78567	-208.963	40.1643	23.7311	-182.219	36.3545	9.02833	
1	0.00833333	-163.997	15.5305	25.2374	-147.756	1.46031	9.9685	-139.26	-6.77583	-7.87851	-125.092	-16.5598	-24.4855	-166.597	14.0516	-42.4015	-160.135	5.89418	-65.9489	-154.858	-6.17035	-87.7538	-186.806	16.252	-52.2822	-187.231	12.9372	-71.3208	-190.576	5.70685	-98.7177	-211.57	17.2884	-43.4364	-209.119	13.7422	-64.0663	-212.998	10.5741	-89.6614	-228.321	13.1165	-27.6144	-238.848	10.8195	-48.6775	-243.861	13.4207	-62.019	-209.749	30.9416	-2.09507	-208.226	40.4765	20.9823	-182.014	34.5957	7.55323	
2	0.0166667	-165.103	14.8263	27.2515	-150.919	0.976212	12.4276	-135.906	-8.50824	-9.60045	-128.092	-15.9463	-20.2063	-161.616	12.2388	-44.5336	-161.099	5.87574	-63.535	-151.813	-4.75991	-83.2978	-189.681	16.798	-48.9535	-187.872	11.9526	-72.24	-187.674	5.89359	-96.795	-206.891	16.4769	-41.4949	-210.32	12.5076	-68.2439	-214.392	9.73838	-88.2769	-230.507	13.9529	-28.5862	-238.6	10.1685	-46.3863	-242.805	10.4624	-62.8653	-210.755	31.4191	-2.79645	-208.205	38.6746	21.0991	-184.382	34.7114	10.2196	
3	0.025	-161.524	14.335	22.6373	-151.34	0.302367	8.9467	-138.14	-8.42788	-8.22444	-127.332	-16.4399	-18.5415	-164.809	12.2966	-44.6996	-156.778	4.98988	-66.3672	-157.721	-3.98817	-83.599	-187.615	16.4945	-47.7123	-188.311	11.6701	-74.6227	-190.567	5.76452	-97.8919	-206.949	16.458	-44.4197	-211.424	12.7847	-67.0989	-212.073	10.1839	-83.7509	-226.034	12.9471	-28.5072	-234.257	11.1918	-47.662	-242.85	12.8512	-62.9118	-208.98	29.6726	-5.55521	-211.861	39.1479	19.2299	-182.631	34.3354	7.03044	
4	0.0333333	-166.588	14.3516	25.6643	-149.898	-0.167596	7.34637	-135.933	-8.78661	-6.35033	-124.556	-17.1162	-19.8335	-162.93	13.1606	-41.1518	-159.352	7.12544	-62.1896	-153.221	-2.84695	-83.1191	-185.497	16.3864	-53.4762	-185.954	9.98666	-76.6084	-188.367	6.37016	-96.4094	-212.081	15.5189	-43.3804	-210.596	12.7131	-68.6837	-214.844	8.76725	-88.2284	-232.281	12.5373	-29.6696	-233.122	10.0789	-46.7398	-243.328	12.3264	-63.3399	-209.984	31.0772	-5.35164	-206.316	38.7503	18.2423	-183.818	33.0966	6.93875	
5	0.0416667	-165.835	13.6645	21.7257	-151.285	0.199676	7.88385	-138.088	-8.44378	-10.9037	-124.477	-17.1039	-21.1008	-162.748	12.444	-39.8362	-162.056	5.04697	-66.2083	-154.338	-3.21433	-83.0173	-190.164	15.0905	-52.4489	-187.279	10.764	-73.882	-192.095	5.48406	-97.3568	-212.91	15.4593	-43.3181	-214.025	12.3406	-68.1442	-216.394	8.99863	-85.1076	-230.207	13.1648	-29.8333	-233.284	9.95126	-44.7196	-243.909	9.89251	-62.4422	-207.249	30.7291	-1.47742	-209.217	38.0545	20.2932	-180.964	32.6539	8.7014	
6	0.05	-163.136	14.2151	22.3315	-148.605	-0.0609778	7.54712	-140.28	-9.25403	-6.82986	-127.558	-16.4318	-21.0812	-165.942	11.8424	-45.6432	-159.422	5.3672	-61.6313	-156.966	-2.94571	-83.625	-190.93	15.4004	-53.0443	-187.141	11.2233	-71.6643	-190.022	6.06181	-99.3543	-207.91	15.7715	-41.3971	-212.522	12.7301	-65.3035	-212.833	9.85548	-89.2193	-232.389	13.3676	-29.42	-237.563	10.2194	-49.1934	-244.164	11.1424	-64.068	-206.154	29.1683	-0.788054	-210.43	39.2094	21.6775	-183.804	35.2208	9.24433	
7	0.0583333	-163.898	14.6596	27.1658	-150.225	-0.688798	10.7447	-135.693	-9.00679	-9.24049	-124.324	-17.2827	-19.6979	-164.968	12.3758	-44.1395	-158.436	3.75101	-65.9443	-158.066	-2.44725	-83.9681	-189.056	15.181	-52.5107	-188.259	10.8485	-72.4097	-186.81	4.42072	-101.512	-207.795	16.0564	-42.6759	-215.067	12.6454	-65.4825	-215.492	9.51239	-85.1664	-232.616	14.2505	-31.9229	-235.389	10.5626	-45.9939	-244.492	10.6629	-66.8345	-211.349	30.2004	-1.26819	-210.016	38.7654	19.9262	-180.556	35.3787	8.61879	
8	0.0666667	-164.271	13.5979	24.3366	-150.826	-0.869164	7.7095	-140.351	-8.72473	-8.64804	-125.776	-16.961	-24.051	-165.098	13.1921	-41.7347	-159.493	4.93128	-67.1403	-152.579	-5.12028	-87.4049	-188.265	16.4294	-49.1608	-190.511	11.2216	-76.1314	-189.164	5.64115	-99.1192	-209.824	16.4572	-44.4081	-214.259	13.0181	-65.1628	-212.379	9.10189	-88.0448	-231.575	14.2037	-27.5043	-234.962	10.9338	-45.0548	-244.581	11.6111	-64.477	-208.559	29.2524	-2.76459	-211.006	38.7403	22.8098	-182.824	33.5162	9.81587	
9	0.075	-166.554	14.4873	25.8611	-147.137	-0.757172	9.53198	-135.785	-8.12021	-5.22698	-128.63	-16.8403	-20.4764	-163.701	12.8294	-42.4779	-162.231	6.98483	-63.0058	-156.321	-3.13394	-85.5686	-186.524	16.4337	-51.3651	-186.038	12.003	-73.7404	-188.172	5.87517	-97.4462	-206.342	16.803	-45.5967	-214.57	14.0565	-63.4354	-213.596	9.20712	-86.0374	-226.778	13.7122	-28.0326	-236.757	10.6073	-47.2189	-242.308	10.7922	-64.0954	-211.168	30.4195	-2.51676	-210.205	39.0796	18.63	-181.832	34.3613	10.6054	
10	0.0833333	-163.707	14.8388	24	-149.215	-0.160228	9.63272	-136.995	-8.86903	-7.52828	-124.463	-16.9271	-21.5276	-165.516	12.0859	-43.8543	-158.944	5.32824	-63.4011	-156.305	-5.51601	-87.2457	-187.236	15.9293	-53.0922	-186.366	11.09	-72.5942	-191.183	5.83927	-97.2961	-212.134	16.2144	-43.2366	-213.374	13.7965	-63.9747	-212.339	10.1288	-87.6734	-226.648	13.501	-28.5459	-235.554	11.4147	-47.1139	-241.868	10.5772	-63.7306	-210.548	30.4479	-2.36238	-209.199	37.7987	17.7663	-183.274	35.2319	8.86808	
11	0.0916667	-167.521	14.004	26.3659	-146.945	-0.697173	11.9505	-135.423	-8.84052	-5.55518	-128.044	-16.857	-20.4268	-163.719	11.8118	-43.9432	-158.453	4.15941	-65.5406	-156.388	-4.31566	-83.6827	-187.278	15.7911	-50.0203	-188.479	11.3564	-74.6791	-189.288	5.45708	-100.854	-210.437	15.86	-41.3155	-209.973	12.996	-63.4763	-214.112	10.641	-83.8872	-226.9	13.6647	-33.7659	-232.938	10.5162	-45.5287	-244.557	11.3245	-64.3344	-209.896	31.3828	-4.52364	-211.493	39.4148	19.2508	-180.383	32.4533	8.0055	
12	0.1	-166.833	14.6581	21.7937	-152.473	-1.40466	8.90768	-135.465	-10.2243	-5.81726	-124.527	-17.4041	-19.6406	-162.681	11.5776	-44.9711	-156.543	4.36228	-64.3666	-154.857	-4.04836	-82.5806	-185.379	15.3883	-51.9215	-187.873	10.6504	-76.0754	-190.249	6.54899	-97.331	-212.017	16.4877	-42.8437	-209.176	13.0223	-66.7894	-213.409	10.116	-85.7248	-229.467	13.1009	-28.4311	-234.558	10.2972	-44.2612	-242.951	12.2791	-65.5563	-205.725	28.4294	-5.07901	-208.93	38.6494	21.8869	-182.696	32.7974	10.0214	
13	0.108333	-165.715	13.4128	26.1328	-147.858	-1.52723	8.8468	-135.437	-9.49234	-8.36679	-125.377	-18.5021	-22.0956	-167.385	12.8174	-42.2756	-160	6.56347	-62.4755	-155.108	-5.0033	-86.3559	-187.353	16.3913	-53.5862	-186.415	10.9127	-75.4539	-188.077	6.28847	-96.7098	-209.551	16.544	-44.9737	-211.304	13.2021	-62.9901	-212.526	10.1002	-84.1679	-227.701	13.9428	-33.3978	-237.233	10.1095	-49.1876	-241.65	11.8916	-65.5287	-207.011	28.3216	-4.7392	-208.614	39.5807	19.4264	-182.681	35.6406	11.6396	
14	0.116667	-164.157	14.8452	25.7137	-149.664	-0.286281	11.6959	-136.696	-9.34175	-6.44779	-129.002	-17.2756	-22.3532	-167.263	13.7295	-45.0048	-161.794	7.02118	-64.1809	-156.006	-4.03034	-85.4142	-186.687	17.0248	-49.8934	-185.929	11.982	-73.6753	-189.97	5.63014	-101.63	-209.416	17.1395	-43.8787	-211.89	14.0662	-65.2794	-211.768	10.2379	-83.576	-232.418	14.3706	-31.8388	-236.763	11.7878	-44.3705	-245.343	13.5299	-66.1089	-211.603	31.0989	-2.01668	-208.735	37.064	20.1015	-184.369	34.97	9.45325	
15	0.125	-164.998	14.3673	24.9409	-150.777	-0.212119	7.50726	-136.813	-8.16503	-12.2538	-129.094	-17.5862	-22.3006	-165.576	15.1156	-43.3454	-158.354	7.93224	-64.2568	-157.657	-2.39391	-89.0309	-190.167	19.0825	-49.5141	-185.452	13.0992	-76.8633	-188.546	8.05117	-98.5884	-211.04	18.5192	-42.4737	-210.704	14.5562	-64.0113	-213.956	11.2232	-84.9529	-233.079	15.241	-30.5586	-235.722	12.2524	-46.601	-242.565	13.9519	-66.0019	-209.32	30.0595	-4.33881	-209.584	38.2533	20.9417	-182.196	36.5105	7.08463	
16	0.133333	-164.988	15.2436	25.6863	-149.241	0.128366	4.10219	-140.039	-7.4256	-11.4952	-129.751	-15.6784	-29.3232	-167.62	17.2717	-42.1826	-162.708	8.58816	-67.8032	-158.112	0.215407	-87.0617	-192.625	19.7167	-48.7245	-191.081	15.1679	-75.4997	-191.539	9.11185	-98.5607	-208.795	18.8326	-44.4799	-214.108	16.5688	-66.8762	-215.275	12.9745	-89.5568	-232.575	15.3966	-32.1523	-237.159	13.1673	-46.071	-243.681	13.5352	-63.9768	-211.039	32.1046	-0.15691	-209.095	39.6785	19.3235	-184.863	37.0078	6.50244	
17	0.141667	-164.159	15.2739	23.3763	-153.146	0.0509304	7.52935	-141.899	-7.74014	-11.1802	-130.903	-15.9232	-28.3485	-165.702	18.8187	-41.3846	-163.512	10.6789	-68.0754	-158.653	1.52612	-86.5844	-192.003	20.9842	-53.4468	-189.678	16.0333	-74.5222	-193.58	8.72994	-102.625	-213.351	20.8808	-44.6918	-215.595	18.1904	-64.3829	-212.134	12.4365	-87.8109	-231.092	16.827	-29.7706	-240.539	14.1791	-47.9416	-244.842	14.4479	-61.8884	-209.977	32.8077	-2.66564	-212.514	39.1382	19.5107	-187.621	37.355	8.59492	
18	0.15	-164.242	15.843	21.9054	-155.56	1.02637	6.67317	-141.478	-7.72718	-15.8647	-137.345	-14.5163	-31.0913	-168.03	20.1652	-41.0896	-162.073	14.149	-65.8779	-160.968	3.95134	-87.5314	-191.657	24.0537	-50.0164	-193.37	18.1909	-78.0948	-194.587	12.8276	-97.5186	-213.382	22.8639	-42.212	-217.653	19.6546	-66.7329	-215.839	14.1628	-90.0031	-232.847	18.0151	-29.1032	-238.936	16.1567	-49.0983	-243.773	16.9509	-63.092	-209.93	33.4357	-0.0877381	-213.282	41.4397	23.1596	-189.071	36.3659	10.5132	
19	0.158333	-167.909	15.9491	22.5909	-152.568	1.12126	5.36267	-144.614	-6.0225	-14.7479	-136.242	-14.3063	-31.705	-169.946	23.5218	-46.0719	-164.169	17.4624	-63.8869	-161.012	5.69377	-87.1371	-193.002	26.0947	-53.2373	-189.199	20.6664	-75.236	-194.071	14.4612	-98.1996	-216.099	24.3461	-45.9524	-215.484	20.736	-64.3405	-215.363	15.0175	-89.092	-234.584	19.7557	-27.1131	-241.17	17.9729	-44.8438	-247.941	17.136	-62.9229	-211.587	36.4736	-2.50916	-212.652	39.0679	25.8848	-184.343	38.4362	12.2678	
20	0.166667	-170.186	16.9863	24.8497	-153.217	2.50261	1.89914	-144.792	-4.65883	-18.7858	-138.704	-13.8538	-36.3414	-170.997	25.3522	-41.2884	-165.884	18.34	-67.9835	-161.216	7.06125	-89.4023	-195.792	27.2194	-50.0089	-189.748	23.2887	-74.184	-193.301	16.1508	-100.347	-215.725	24.903	-43.0223	-217.65	21.9021	-69.4513	-214.266	15.6767	-87.5268	-234.495	20.2201	-28.5407	-241.279	18.0994	-45.8729	-245.259	19.2533	-64.3185	-212.811	34.6665	-0.990034	-213.086	39.5115	22.1864	-189.077	39.7377	8.59236	
21	0.175	-168.438	19.3393	21.0204	-156.066	4.09106	5.69735	-145.902	-3.22186	-17.6998	-143.034	-11.8142	-32.7912	-170.482	26.3188	-44.0573	-163.221	20.604	-65.3497	-159.364	11.0721	-86.2269	-191.51	29.4193	-53.4623	-192.865	24.2588	-77.1945	-192.987	18.6318	-99.284	-215.232	25.5229	-42.6505	-215.798	22.2076	-69.0711	-216.409	16.3446	-87.8555	-234.215	20.5582	-32.5857	-240.551	18.5942	-50.3633	-246.859	18.7189	-63.8031	-213.511	35.7686	-2.30103	-215.923	39.9957	25.1453	-189.666	40.1212	10.5615	
22	0.183333	-169.027	18.9198	22.8038	-155.934	6.01307	-0.517447	-146.431	-1.93735	-20.9207	-141.447	-11.4319	-40.2272	-169.078	28.4757	-40.9196	-164.658	22.3743	-65.6787	-161.344	11.9151	-85.8215	-192.721	29.6225	-51.8843	-196.698	25.6218	-73.7234	-196.716	18.5947	-103.225	-212.484	25.5681	-42.2786	-218.377	22.4203	-66.9853	-214.035	15.9222	-87.8675	-236.768	20.3049	-31.2333	-242.78	17.3047	-50.1557	-249.969	19.1412	-63.8092	-216.87	36.7057	-2.28188	-217.011	42.499	25.4972	-189.051	42.074	10.5607	
